<svg width="166" height="166" viewBox="0 0 166 166" fill="none" xmlns="http://www.w3.org/2000/svg">
<path d="M57.4701 98.152C57.0017 98.4446 56.8593 99.0616 57.152 99.5299C57.4446 99.9983 58.0616 100.141 58.5299 99.848L57.4701 98.152ZM109.857 67.4298C109.981 66.8917 109.646 66.3547 109.108 66.2305L100.339 64.2059C99.8004 64.0817 99.2634 64.4172 99.1392 64.9553C99.0149 65.4935 99.3505 66.0304 99.8886 66.1547L107.684 67.9543L105.884 75.7492C105.76 76.2874 106.095 76.8243 106.633 76.9485C107.172 77.0728 107.708 76.7373 107.833 76.1991L109.857 67.4298ZM58.5299 99.848L109.413 68.0529L108.353 66.3568L57.4701 98.152L58.5299 99.848Z" fill="black"/>
</svg>
