<?xml version="1.0" standalone="no"?>
<!DOCTYPE svg PUBLIC "-//W3C//DTD SVG 20010904//EN"
 "http://www.w3.org/TR/2001/REC-SVG-20010904/DTD/svg10.dtd">
<svg version="1.0" xmlns="http://www.w3.org/2000/svg"
 width="145.000000pt" height="145.000000pt" viewBox="0 0 145.000000 145.000000"
 preserveAspectRatio="xMidYMid meet">
<metadata>
Created by potrace 1.14, written by Peter Selinger 2001-2017
</metadata>
<g transform="translate(0.000000,145.000000) scale(0.100000,-0.100000)"
fill="#000000" stroke="none">
<path d="M791 1240 l0 -60 280 0 279 0 1 30 c1 17 1 39 1 50 0 11 0 25 -1 30
-1 6 -101 10 -280 10 l-279 0 -1 -60z"/>
<path d="M220 989 c-74 -19 -136 -46 -176 -78 l-22 -17 25 -41 24 -41 49 30
c116 72 289 86 377 32 60 -37 89 -93 92 -177 l2 -62 -188 -1 c-170 -1 -194 -4
-248 -24 -107 -41 -163 -126 -152 -233 9 -94 52 -152 146 -195 48 -22 70 -26
151 -26 120 0 182 20 250 81 l50 45 -3 -49 c-5 -69 -2 -73 57 -73 l52 0 -1 68
c-1 37 0 70 2 75 3 4 21 -9 40 -28 75 -75 169 -114 289 -120 86 -4 180 12 237
41 37 19 117 82 117 92 -1 4 -14 23 -30 41 l-30 35 -27 -26 c-46 -44 -133 -78
-209 -82 -131 -7 -241 42 -302 133 -31 46 -57 123 -49 145 3 8 96 11 343 10
187 0 344 1 350 3 27 10 -4 186 -45 258 -72 125 -183 192 -327 200 -134 7
-233 -31 -326 -127 -32 -32 -58 -52 -58 -45 0 46 -100 133 -182 158 -62 20
-197 18 -278 -2z m947 -108 c84 -42 140 -115 161 -209 l10 -42 -299 0 c-341 0
-317 -8 -280 90 48 127 157 195 297 186 44 -3 87 -12 111 -25z m-575 -373 c8
-109 -33 -185 -122 -231 -103 -52 -246 -43 -313 19 -55 51 -55 159 -1 207 42
37 90 45 266 46 l167 1 3 -42z"/>
</g>
</svg>
